
<svg version="1.1" xmlns="http://www.w3.org/2000/svg" xmlns:xlink="http://www.w3.org/1999/xlink" x="0px" y="0px"
	 viewBox="0 0 35 35" style="enable-background:new 0 0 35 35;" xml:space="preserve">
<style type="text/css">
	.st0{fill:#000000;}
	.st1{fill:#24B1FF;}
	.st2{fill:none;stroke:#FFFEDA;stroke-width:0.7;stroke-linecap:round;stroke-miterlimit:10;}
</style>
<g id="kitchen_table">
	<g>
		<g>
			<line class="st2" x1="7.015" y1="11.913" x2="27.985" y2="11.913"/>
			<g>
				<line class="st2" x1="7.015" y1="23.087" x2="7.015" y2="11.913"/>
				<line class="st2" x1="27.985" y1="23.087" x2="7.015" y2="23.087"/>
				<line class="st2" x1="27.985" y1="11.913" x2="27.985" y2="23.087"/>
			</g>
		</g>
		<g>
			<g>
				<g>
					<line class="st2" x1="10.419" y1="9.34" x2="9.187" y2="6.943"/>
					<path class="st2" d="M16.058,6.943c0,0-1.023-1.193-3.436-1.193l0,0c-2.413,0-3.436,1.193-3.436,1.193"/>
					<line class="st2" x1="14.826" y1="9.34" x2="16.058" y2="6.943"/>
				</g>
				<g>
					<path class="st2" d="M15.568,11.913l-0.144-2.102c0-0.26-0.212-0.472-0.472-0.472h-2.341h-2.318
						c-0.26,0-0.472,0.212-0.472,0.472l-0.144,2.102"/>
				</g>
			</g>
			<g>
				<g>
					<line class="st2" x1="20.174" y1="9.34" x2="18.942" y2="6.943"/>
					<path class="st2" d="M25.813,6.943c0,0-1.023-1.193-3.436-1.193l0,0c-2.413,0-3.436,1.193-3.436,1.193"/>
					<line class="st2" x1="24.581" y1="9.34" x2="25.813" y2="6.943"/>
				</g>
				<g>
					<path class="st2" d="M25.323,11.913l-0.144-2.102c0-0.26-0.212-0.472-0.472-0.472h-2.341h-2.318
						c-0.26,0-0.472,0.212-0.472,0.472l-0.144,2.102"/>
				</g>
			</g>
		</g>
		<g>
			<g>
				<g>
					<line class="st2" x1="24.581" y1="25.66" x2="25.813" y2="28.057"/>
					<path class="st2" d="M18.942,28.057c0,0,1.023,1.193,3.436,1.193l0,0c2.413,0,3.436-1.193,3.436-1.193"/>
					<line class="st2" x1="20.174" y1="25.66" x2="18.942" y2="28.057"/>
				</g>
				<g>
					<path class="st2" d="M19.432,23.087l0.144,2.102c0,0.26,0.212,0.472,0.472,0.472h2.341h2.318c0.26,0,0.472-0.212,0.472-0.472
						l0.144-2.102"/>
				</g>
			</g>
			<g>
				<g>
					<line class="st2" x1="14.826" y1="25.66" x2="16.058" y2="28.057"/>
					<path class="st2" d="M9.187,28.057c0,0,1.023,1.193,3.436,1.193l0,0c2.413,0,3.436-1.193,3.436-1.193"/>
					<line class="st2" x1="10.419" y1="25.66" x2="9.187" y2="28.057"/>
				</g>
				<g>
					<path class="st2" d="M9.677,23.087l0.144,2.102c0,0.26,0.212,0.472,0.472,0.472h2.341h2.318c0.26,0,0.472-0.212,0.472-0.472
						l0.144-2.102"/>
				</g>
			</g>
		</g>
		<g>
			<g>
				<line class="st2" x1="30.559" y1="15.297" x2="32.955" y2="14.064"/>
				<path class="st2" d="M32.955,20.936c0,0,1.193-1.023,1.193-3.436l0,0c0-2.413-1.193-3.436-1.193-3.436"/>
				<line class="st2" x1="30.559" y1="19.703" x2="32.955" y2="20.936"/>
			</g>
			<g>
				<path class="st2" d="M27.985,20.446l2.102-0.144c0.26,0,0.472-0.212,0.472-0.472v-2.341v-2.318c0-0.26-0.212-0.472-0.472-0.472
					l-2.102-0.144"/>
			</g>
		</g>
		<g>
			<g>
				<line class="st2" x1="4.442" y1="19.703" x2="2.045" y2="20.936"/>
				<path class="st2" d="M2.045,14.064c0,0-1.193,1.023-1.193,3.436l0,0c0,2.413,1.193,3.436,1.193,3.436"/>
				<line class="st2" x1="4.442" y1="15.297" x2="2.045" y2="14.064"/>
			</g>
			<g>
				<path class="st2" d="M7.015,14.554l-2.102,0.144c-0.26,0-0.472,0.212-0.472,0.472v2.341v2.318c0,0.26,0.212,0.472,0.472,0.472
					l2.102,0.144"/>
			</g>
		</g>
	</g>
</g>
</svg>
